<?xml version="1.0" encoding="UTF-8" standalone="no"?>
<svg
   xmlns:dc="http://purl.org/dc/elements/1.1/"
   xmlns:cc="http://creativecommons.org/ns#"
   xmlns:rdf="http://www.w3.org/1999/02/22-rdf-syntax-ns#"
   xmlns:svg="http://www.w3.org/2000/svg"
   xmlns="http://www.w3.org/2000/svg"
   version="1.1"
   id="svg2"
   viewBox="0 0 338.92857 74.52359"
   height="21.032213mm"
   width="95.653175mm">
  <defs
     id="defs4">
    <marker
       style="overflow:visible"
       id="Arrow1Mend"
       refX="0"
       refY="0"
       orient="auto">
      <path
         transform="matrix(-0.4,0,0,-0.4,-4,0)"
         style="fill:#000000;fill-opacity:1;fill-rule:evenodd;stroke:#000000;stroke-width:1pt;stroke-opacity:1"
         d="M 0,0 5,-5 -12.5,0 5,5 0,0 Z"
         id="path4459" />
    </marker>
    <marker
       style="overflow:visible"
       id="Arrow1Lend"
       refX="0"
       refY="0"
       orient="auto">
      <path
         transform="matrix(-0.8,0,0,-0.8,-10,0)"
         style="fill:#000000;fill-opacity:1;fill-rule:evenodd;stroke:#000000;stroke-width:1pt;stroke-opacity:1"
         d="M 0,0 5,-5 -12.5,0 5,5 0,0 Z"
         id="path4453" />
    </marker>
  </defs>
  <metadata
     id="metadata7">
    <rdf:RDF>
      <cc:Work
         rdf:about="">
        <dc:format>image/svg+xml</dc:format>
        <dc:type
           rdf:resource="http://purl.org/dc/dcmitype/StillImage" />
        <dc:title></dc:title>
      </cc:Work>
    </rdf:RDF>
  </metadata>
  <g
     transform="translate(-24.404113,-260.44217)"
     id="layer1">
    <path
       id="path4420"
       style="fill:none;fill-opacity:0.75;fill-rule:evenodd;stroke:#000000;stroke-width:2.79528732pt;stroke-linecap:butt;stroke-linejoin:miter;stroke-opacity:1"
       d="m 26.151168,299.67525 0,34.38181 m 33.543446,-34.38181 0,34.38181 m 33.543447,-34.38181 0,34.38181 m 33.543449,-34.38181 0,34.38181 m 33.54344,-34.38181 0,34.38181 m 33.54345,-34.38181 0,34.38181 m 33.54344,-34.38181 0,34.38181 m 33.54345,-34.38181 0,34.38181 m 33.54344,-34.38181 0,34.38181 m 33.54345,-34.38181 0,34.38181 m 33.54345,-34.38181 0,34.38181 m -335.434462,-34.38181 336.683762,0 m -336.683762,33.54345 336.683762,0" />
    <text
       id="text4422"
       y="319.14789"
       x="70.848213"
       style="font-style:normal;font-weight:normal;font-size:40px;line-height:125%;font-family:sans-serif;letter-spacing:0px;word-spacing:0px;fill:#000000;fill-opacity:1;stroke:none;stroke-width:1px;stroke-linecap:butt;stroke-linejoin:miter;stroke-opacity:1"
       xml:space="preserve"><tspan
         style="font-style:normal;font-variant:normal;font-weight:normal;font-stretch:normal;font-size:15px;font-family:monospace;-inkscape-font-specification:monospace"
         y="319.14789"
         x="70.848213"
         id="tspan4424">p:</tspan></text>
    <text
       id="text4422-1"
       y="321.25256"
       x="271.9003"
       style="font-style:normal;font-weight:normal;font-size:40px;line-height:125%;font-family:sans-serif;letter-spacing:0px;word-spacing:0px;fill:#000000;fill-opacity:1;stroke:none;stroke-width:1px;stroke-linecap:butt;stroke-linejoin:miter;stroke-opacity:1"
       xml:space="preserve"><tspan
         style="font-style:normal;font-variant:normal;font-weight:normal;font-stretch:normal;font-size:15px;font-family:monospace;-inkscape-font-specification:monospace"
         y="321.25256"
         x="271.9003"
         id="tspan4424-0">c:</tspan></text>
    <path
       id="path4444"
       d="m 85.892857,298.79076 c 0,0 27.325863,-17.4763 95.535723,-34.28571 68.20985,-16.80942 90.71428,31.24999 90.71428,31.24999"
       style="fill:none;fill-rule:evenodd;stroke:#000000;stroke-width:1px;stroke-linecap:butt;stroke-linejoin:miter;stroke-opacity:1;marker-end:url(#Arrow1Mend)" />
  </g>
</svg>
